<?xml version="1.0" encoding="UTF-8"?>
<svg xmlns="http://www.w3.org/2000/svg" xmlns:xlink="http://www.w3.org/1999/xlink"
     width="400" height="400" viewBox="-200.0 -200.0 400 400">
<defs>
</defs>
<circle cx="-5" cy="0" r="1" fill-opacity="0" stroke-width="1" stroke="red" />
<circle cx="-5" cy="-7" r="1" fill-opacity="0" stroke-width="1" stroke="red" />
<circle cx="-5" cy="-14" r="1" fill-opacity="0" stroke-width="1" stroke="red" />
<circle cx="-5" cy="-21" r="1" fill-opacity="0" stroke-width="1" stroke="red" />
<circle cx="-5" cy="-28" r="1" fill-opacity="0" stroke-width="1" stroke="red" />
<circle cx="-5" cy="-35" r="1" fill-opacity="0" stroke-width="1" stroke="red" />
<circle cx="-5" cy="-42" r="1" fill-opacity="0" stroke-width="1" stroke="red" />
<circle cx="-5" cy="-49" r="1" fill-opacity="0" stroke-width="1" stroke="red" />
<circle cx="-5" cy="-56" r="1" fill-opacity="0" stroke-width="1" stroke="red" />
<circle cx="-5" cy="-63" r="1" fill-opacity="0" stroke-width="1" stroke="red" />
<circle cx="-5" cy="-70" r="1" fill-opacity="0" stroke-width="1" stroke="red" />
<circle cx="-5" cy="-77" r="1" fill-opacity="0" stroke-width="1" stroke="red" />
<circle cx="-5" cy="-84" r="1" fill-opacity="0" stroke-width="1" stroke="red" />
<circle cx="-5" cy="-91" r="1" fill-opacity="0" stroke-width="1" stroke="red" />
<circle cx="-5" cy="-98" r="1" fill-opacity="0" stroke-width="1" stroke="red" />
<circle cx="-5" cy="-105" r="1" fill-opacity="0" stroke-width="1" stroke="red" />
<circle cx="-5" cy="-112" r="1" fill-opacity="0" stroke-width="1" stroke="red" />
<circle cx="-5" cy="-119" r="1" fill-opacity="0" stroke-width="1" stroke="red" />
<circle cx="-5" cy="-126" r="1" fill-opacity="0" stroke-width="1" stroke="red" />
<circle cx="-5" cy="-133" r="1" fill-opacity="0" stroke-width="1" stroke="red" />
<circle cx="-5" cy="-140" r="1" fill-opacity="0" stroke-width="1" stroke="red" />
<circle cx="-5" cy="-147" r="1" fill-opacity="0" stroke-width="1" stroke="red" />
<circle cx="-5" cy="-154" r="1" fill-opacity="0" stroke-width="1" stroke="red" />
<circle cx="-5" cy="-161" r="1" fill-opacity="0" stroke-width="1" stroke="red" />
<circle cx="-5" cy="-168" r="1" fill-opacity="0" stroke-width="1" stroke="red" />
<circle cx="-5" cy="-175" r="1" fill-opacity="0" stroke-width="1" stroke="red" />
<circle cx="-5" cy="-182" r="1" fill-opacity="0" stroke-width="1" stroke="red" />
<circle cx="-5" cy="-189" r="1" fill-opacity="0" stroke-width="1" stroke="red" />
<circle cx="-5" cy="-196" r="1" fill-opacity="0" stroke-width="1" stroke="red" />
<circle cx="-5" cy="-203" r="1" fill-opacity="0" stroke-width="1" stroke="red" />
<circle cx="-12" cy="0" r="1" fill-opacity="0" stroke-width="1" stroke="red" />
<circle cx="-12" cy="-7" r="1" fill-opacity="0" stroke-width="1" stroke="red" />
<circle cx="-12" cy="-14" r="1" fill-opacity="0" stroke-width="1" stroke="red" />
<circle cx="-12" cy="-21" r="1" fill-opacity="0" stroke-width="1" stroke="red" />
<circle cx="-12" cy="-28" r="1" fill-opacity="0" stroke-width="1" stroke="red" />
<circle cx="-12" cy="-35" r="1" fill-opacity="0" stroke-width="1" stroke="red" />
<circle cx="-12" cy="-42" r="1" fill-opacity="0" stroke-width="1" stroke="red" />
<circle cx="-12" cy="-49" r="1" fill-opacity="0" stroke-width="1" stroke="red" />
<circle cx="-12" cy="-56" r="1" fill-opacity="0" stroke-width="1" stroke="red" />
<circle cx="-12" cy="-63" r="1" fill-opacity="0" stroke-width="1" stroke="red" />
<circle cx="-12" cy="-70" r="1" fill-opacity="0" stroke-width="1" stroke="red" />
<circle cx="-12" cy="-77" r="1" fill-opacity="0" stroke-width="1" stroke="red" />
<circle cx="-12" cy="-84" r="1" fill-opacity="0" stroke-width="1" stroke="red" />
<circle cx="-12" cy="-91" r="1" fill-opacity="0" stroke-width="1" stroke="red" />
<circle cx="-12" cy="-98" r="1" fill-opacity="0" stroke-width="1" stroke="red" />
<circle cx="-12" cy="-105" r="1" fill-opacity="0" stroke-width="1" stroke="red" />
<circle cx="-12" cy="-112" r="1" fill-opacity="0" stroke-width="1" stroke="red" />
<circle cx="-12" cy="-119" r="1" fill-opacity="0" stroke-width="1" stroke="red" />
<circle cx="-12" cy="-126" r="1" fill-opacity="0" stroke-width="1" stroke="red" />
<circle cx="-12" cy="-133" r="1" fill-opacity="0" stroke-width="1" stroke="red" />
<circle cx="-12" cy="-140" r="1" fill-opacity="0" stroke-width="1" stroke="red" />
<circle cx="-12" cy="-147" r="1" fill-opacity="0" stroke-width="1" stroke="red" />
<circle cx="-12" cy="-154" r="1" fill-opacity="0" stroke-width="1" stroke="red" />
<circle cx="-12" cy="-161" r="1" fill-opacity="0" stroke-width="1" stroke="red" />
<circle cx="-12" cy="-168" r="1" fill-opacity="0" stroke-width="1" stroke="red" />
<circle cx="-12" cy="-175" r="1" fill-opacity="0" stroke-width="1" stroke="red" />
<circle cx="-12" cy="-182" r="1" fill-opacity="0" stroke-width="1" stroke="red" />
<circle cx="-12" cy="-189" r="1" fill-opacity="0" stroke-width="1" stroke="red" />
<circle cx="-12" cy="-196" r="1" fill-opacity="0" stroke-width="1" stroke="red" />
<circle cx="-12" cy="-203" r="1" fill-opacity="0" stroke-width="1" stroke="red" />
<circle cx="-19" cy="0" r="1" fill-opacity="0" stroke-width="1" stroke="red" />
<circle cx="-19" cy="-7" r="1" fill-opacity="0" stroke-width="1" stroke="red" />
<circle cx="-19" cy="-14" r="1" fill-opacity="0" stroke-width="1" stroke="red" />
<circle cx="-19" cy="-21" r="1" fill-opacity="0" stroke-width="1" stroke="red" />
<circle cx="-19" cy="-28" r="1" fill-opacity="0" stroke-width="1" stroke="red" />
<circle cx="-19" cy="-35" r="1" fill-opacity="0" stroke-width="1" stroke="red" />
<circle cx="-19" cy="-42" r="1" fill-opacity="0" stroke-width="1" stroke="red" />
<circle cx="-19" cy="-49" r="1" fill-opacity="0" stroke-width="1" stroke="red" />
<circle cx="-19" cy="-56" r="1" fill-opacity="0" stroke-width="1" stroke="red" />
<circle cx="-19" cy="-63" r="1" fill-opacity="0" stroke-width="1" stroke="red" />
<circle cx="-19" cy="-70" r="1" fill-opacity="0" stroke-width="1" stroke="red" />
<circle cx="-19" cy="-77" r="1" fill-opacity="0" stroke-width="1" stroke="red" />
<circle cx="-19" cy="-84" r="1" fill-opacity="0" stroke-width="1" stroke="red" />
<circle cx="-19" cy="-91" r="1" fill-opacity="0" stroke-width="1" stroke="red" />
<circle cx="-19" cy="-98" r="1" fill-opacity="0" stroke-width="1" stroke="red" />
<circle cx="-19" cy="-105" r="1" fill-opacity="0" stroke-width="1" stroke="red" />
<circle cx="-19" cy="-112" r="1" fill-opacity="0" stroke-width="1" stroke="red" />
<circle cx="-19" cy="-119" r="1" fill-opacity="0" stroke-width="1" stroke="red" />
<circle cx="-19" cy="-126" r="1" fill-opacity="0" stroke-width="1" stroke="red" />
<circle cx="-19" cy="-133" r="1" fill-opacity="0" stroke-width="1" stroke="red" />
<circle cx="-19" cy="-140" r="1" fill-opacity="0" stroke-width="1" stroke="red" />
<circle cx="-19" cy="-147" r="1" fill-opacity="0" stroke-width="1" stroke="red" />
<circle cx="-19" cy="-154" r="1" fill-opacity="0" stroke-width="1" stroke="red" />
<circle cx="-19" cy="-161" r="1" fill-opacity="0" stroke-width="1" stroke="red" />
<circle cx="-19" cy="-168" r="1" fill-opacity="0" stroke-width="1" stroke="red" />
<circle cx="-19" cy="-175" r="1" fill-opacity="0" stroke-width="1" stroke="red" />
<circle cx="-19" cy="-182" r="1" fill-opacity="0" stroke-width="1" stroke="red" />
<circle cx="-19" cy="-189" r="1" fill-opacity="0" stroke-width="1" stroke="red" />
<circle cx="-19" cy="-196" r="1" fill-opacity="0" stroke-width="1" stroke="red" />
<circle cx="-19" cy="-203" r="1" fill-opacity="0" stroke-width="1" stroke="red" />
<circle cx="-26" cy="0" r="1" fill-opacity="0" stroke-width="1" stroke="red" />
<circle cx="-26" cy="-7" r="1" fill-opacity="0" stroke-width="1" stroke="red" />
<circle cx="-26" cy="-14" r="1" fill-opacity="0" stroke-width="1" stroke="red" />
<circle cx="-26" cy="-21" r="1" fill-opacity="0" stroke-width="1" stroke="red" />
<circle cx="-26" cy="-28" r="1" fill-opacity="0" stroke-width="1" stroke="red" />
<circle cx="-26" cy="-35" r="1" fill-opacity="0" stroke-width="1" stroke="red" />
<circle cx="-26" cy="-42" r="1" fill-opacity="0" stroke-width="1" stroke="red" />
<circle cx="-26" cy="-49" r="1" fill-opacity="0" stroke-width="1" stroke="red" />
<circle cx="-26" cy="-56" r="1" fill-opacity="0" stroke-width="1" stroke="red" />
<circle cx="-26" cy="-63" r="1" fill-opacity="0" stroke-width="1" stroke="red" />
<circle cx="-26" cy="-70" r="1" fill-opacity="0" stroke-width="1" stroke="red" />
<circle cx="-26" cy="-77" r="1" fill-opacity="0" stroke-width="1" stroke="red" />
<circle cx="-26" cy="-84" r="1" fill-opacity="0" stroke-width="1" stroke="red" />
<circle cx="-26" cy="-91" r="1" fill-opacity="0" stroke-width="1" stroke="red" />
<circle cx="-26" cy="-98" r="1" fill-opacity="0" stroke-width="1" stroke="red" />
<circle cx="-26" cy="-105" r="1" fill-opacity="0" stroke-width="1" stroke="red" />
<circle cx="-26" cy="-112" r="1" fill-opacity="0" stroke-width="1" stroke="red" />
<circle cx="-26" cy="-119" r="1" fill-opacity="0" stroke-width="1" stroke="red" />
<circle cx="-26" cy="-126" r="1" fill-opacity="0" stroke-width="1" stroke="red" />
<circle cx="-26" cy="-133" r="1" fill-opacity="0" stroke-width="1" stroke="red" />
<circle cx="-26" cy="-140" r="1" fill-opacity="0" stroke-width="1" stroke="red" />
<circle cx="-26" cy="-147" r="1" fill-opacity="0" stroke-width="1" stroke="red" />
<circle cx="-26" cy="-154" r="1" fill-opacity="0" stroke-width="1" stroke="red" />
<circle cx="-26" cy="-161" r="1" fill-opacity="0" stroke-width="1" stroke="red" />
<circle cx="-26" cy="-168" r="1" fill-opacity="0" stroke-width="1" stroke="red" />
<circle cx="-26" cy="-175" r="1" fill-opacity="0" stroke-width="1" stroke="red" />
<circle cx="-26" cy="-182" r="1" fill-opacity="0" stroke-width="1" stroke="red" />
<circle cx="-26" cy="-189" r="1" fill-opacity="0" stroke-width="1" stroke="red" />
<circle cx="-26" cy="-196" r="1" fill-opacity="0" stroke-width="1" stroke="red" />
<circle cx="-26" cy="-203" r="1" fill-opacity="0" stroke-width="1" stroke="red" />
<circle cx="-33" cy="0" r="1" fill-opacity="0" stroke-width="1" stroke="red" />
<circle cx="-33" cy="-7" r="1" fill-opacity="0" stroke-width="1" stroke="red" />
<circle cx="-33" cy="-14" r="1" fill-opacity="0" stroke-width="1" stroke="red" />
<circle cx="-33" cy="-21" r="1" fill-opacity="0" stroke-width="1" stroke="red" />
<circle cx="-33" cy="-28" r="1" fill-opacity="0" stroke-width="1" stroke="red" />
<circle cx="-33" cy="-35" r="1" fill-opacity="0" stroke-width="1" stroke="red" />
<circle cx="-33" cy="-42" r="1" fill-opacity="0" stroke-width="1" stroke="red" />
<circle cx="-33" cy="-49" r="1" fill-opacity="0" stroke-width="1" stroke="red" />
<circle cx="-33" cy="-56" r="1" fill-opacity="0" stroke-width="1" stroke="red" />
<circle cx="-33" cy="-63" r="1" fill-opacity="0" stroke-width="1" stroke="red" />
<circle cx="-33" cy="-70" r="1" fill-opacity="0" stroke-width="1" stroke="red" />
<circle cx="-33" cy="-77" r="1" fill-opacity="0" stroke-width="1" stroke="red" />
<circle cx="-33" cy="-84" r="1" fill-opacity="0" stroke-width="1" stroke="red" />
<circle cx="-33" cy="-91" r="1" fill-opacity="0" stroke-width="1" stroke="red" />
<circle cx="-33" cy="-98" r="1" fill-opacity="0" stroke-width="1" stroke="red" />
<circle cx="-33" cy="-105" r="1" fill-opacity="0" stroke-width="1" stroke="red" />
<circle cx="-33" cy="-112" r="1" fill-opacity="0" stroke-width="1" stroke="red" />
<circle cx="-33" cy="-119" r="1" fill-opacity="0" stroke-width="1" stroke="red" />
<circle cx="-33" cy="-126" r="1" fill-opacity="0" stroke-width="1" stroke="red" />
<circle cx="-33" cy="-133" r="1" fill-opacity="0" stroke-width="1" stroke="red" />
<circle cx="-33" cy="-140" r="1" fill-opacity="0" stroke-width="1" stroke="red" />
<circle cx="-33" cy="-147" r="1" fill-opacity="0" stroke-width="1" stroke="red" />
<circle cx="-33" cy="-154" r="1" fill-opacity="0" stroke-width="1" stroke="red" />
<circle cx="-33" cy="-161" r="1" fill-opacity="0" stroke-width="1" stroke="red" />
<circle cx="-33" cy="-168" r="1" fill-opacity="0" stroke-width="1" stroke="red" />
<circle cx="-33" cy="-175" r="1" fill-opacity="0" stroke-width="1" stroke="red" />
<circle cx="-33" cy="-182" r="1" fill-opacity="0" stroke-width="1" stroke="red" />
<circle cx="-33" cy="-189" r="1" fill-opacity="0" stroke-width="1" stroke="red" />
<circle cx="-33" cy="-196" r="1" fill-opacity="0" stroke-width="1" stroke="red" />
<circle cx="-33" cy="-203" r="1" fill-opacity="0" stroke-width="1" stroke="red" />
<circle cx="-40" cy="0" r="1" fill-opacity="0" stroke-width="1" stroke="red" />
<circle cx="-40" cy="-7" r="1" fill-opacity="0" stroke-width="1" stroke="red" />
<circle cx="-40" cy="-14" r="1" fill-opacity="0" stroke-width="1" stroke="red" />
<circle cx="-40" cy="-21" r="1" fill-opacity="0" stroke-width="1" stroke="red" />
<circle cx="-40" cy="-28" r="1" fill-opacity="0" stroke-width="1" stroke="red" />
<circle cx="-40" cy="-35" r="1" fill-opacity="0" stroke-width="1" stroke="red" />
<circle cx="-40" cy="-42" r="1" fill-opacity="0" stroke-width="1" stroke="red" />
<circle cx="-40" cy="-49" r="1" fill-opacity="0" stroke-width="1" stroke="red" />
<circle cx="-40" cy="-56" r="1" fill-opacity="0" stroke-width="1" stroke="red" />
<circle cx="-40" cy="-63" r="1" fill-opacity="0" stroke-width="1" stroke="red" />
<circle cx="-40" cy="-70" r="1" fill-opacity="0" stroke-width="1" stroke="red" />
<circle cx="-40" cy="-77" r="1" fill-opacity="0" stroke-width="1" stroke="red" />
<circle cx="-40" cy="-84" r="1" fill-opacity="0" stroke-width="1" stroke="red" />
<circle cx="-40" cy="-91" r="1" fill-opacity="0" stroke-width="1" stroke="red" />
<circle cx="-40" cy="-98" r="1" fill-opacity="0" stroke-width="1" stroke="red" />
<circle cx="-40" cy="-105" r="1" fill-opacity="0" stroke-width="1" stroke="red" />
<circle cx="-40" cy="-112" r="1" fill-opacity="0" stroke-width="1" stroke="red" />
<circle cx="-40" cy="-119" r="1" fill-opacity="0" stroke-width="1" stroke="red" />
<circle cx="-40" cy="-126" r="1" fill-opacity="0" stroke-width="1" stroke="red" />
<circle cx="-40" cy="-133" r="1" fill-opacity="0" stroke-width="1" stroke="red" />
<circle cx="-40" cy="-140" r="1" fill-opacity="0" stroke-width="1" stroke="red" />
<circle cx="-40" cy="-147" r="1" fill-opacity="0" stroke-width="1" stroke="red" />
<circle cx="-40" cy="-154" r="1" fill-opacity="0" stroke-width="1" stroke="red" />
<circle cx="-40" cy="-161" r="1" fill-opacity="0" stroke-width="1" stroke="red" />
<circle cx="-40" cy="-168" r="1" fill-opacity="0" stroke-width="1" stroke="red" />
<circle cx="-40" cy="-175" r="1" fill-opacity="0" stroke-width="1" stroke="red" />
<circle cx="-40" cy="-182" r="1" fill-opacity="0" stroke-width="1" stroke="red" />
<circle cx="-40" cy="-189" r="1" fill-opacity="0" stroke-width="1" stroke="red" />
<circle cx="-40" cy="-196" r="1" fill-opacity="0" stroke-width="1" stroke="red" />
<circle cx="-40" cy="-203" r="1" fill-opacity="0" stroke-width="1" stroke="red" />
<circle cx="-47" cy="0" r="1" fill-opacity="0" stroke-width="1" stroke="red" />
<circle cx="-47" cy="-7" r="1" fill-opacity="0" stroke-width="1" stroke="red" />
<circle cx="-47" cy="-14" r="1" fill-opacity="0" stroke-width="1" stroke="red" />
<circle cx="-47" cy="-21" r="1" fill-opacity="0" stroke-width="1" stroke="red" />
<circle cx="-47" cy="-28" r="1" fill-opacity="0" stroke-width="1" stroke="red" />
<circle cx="-47" cy="-35" r="1" fill-opacity="0" stroke-width="1" stroke="red" />
<circle cx="-47" cy="-42" r="1" fill-opacity="0" stroke-width="1" stroke="red" />
<circle cx="-47" cy="-49" r="1" fill-opacity="0" stroke-width="1" stroke="red" />
<circle cx="-47" cy="-56" r="1" fill-opacity="0" stroke-width="1" stroke="red" />
<circle cx="-47" cy="-63" r="1" fill-opacity="0" stroke-width="1" stroke="red" />
<circle cx="-47" cy="-70" r="1" fill-opacity="0" stroke-width="1" stroke="red" />
<circle cx="-47" cy="-77" r="1" fill-opacity="0" stroke-width="1" stroke="red" />
<circle cx="-47" cy="-84" r="1" fill-opacity="0" stroke-width="1" stroke="red" />
<circle cx="-47" cy="-91" r="1" fill-opacity="0" stroke-width="1" stroke="red" />
<circle cx="-47" cy="-98" r="1" fill-opacity="0" stroke-width="1" stroke="red" />
<circle cx="-47" cy="-105" r="1" fill-opacity="0" stroke-width="1" stroke="red" />
<circle cx="-47" cy="-112" r="1" fill-opacity="0" stroke-width="1" stroke="red" />
<circle cx="-47" cy="-119" r="1" fill-opacity="0" stroke-width="1" stroke="red" />
<circle cx="-47" cy="-126" r="1" fill-opacity="0" stroke-width="1" stroke="red" />
<circle cx="-47" cy="-133" r="1" fill-opacity="0" stroke-width="1" stroke="red" />
<circle cx="-47" cy="-140" r="1" fill-opacity="0" stroke-width="1" stroke="red" />
<circle cx="-47" cy="-147" r="1" fill-opacity="0" stroke-width="1" stroke="red" />
<circle cx="-47" cy="-154" r="1" fill-opacity="0" stroke-width="1" stroke="red" />
<circle cx="-47" cy="-161" r="1" fill-opacity="0" stroke-width="1" stroke="red" />
<circle cx="-47" cy="-168" r="1" fill-opacity="0" stroke-width="1" stroke="red" />
<circle cx="-47" cy="-175" r="1" fill-opacity="0" stroke-width="1" stroke="red" />
<circle cx="-47" cy="-182" r="1" fill-opacity="0" stroke-width="1" stroke="red" />
<circle cx="-47" cy="-189" r="1" fill-opacity="0" stroke-width="1" stroke="red" />
<circle cx="-47" cy="-196" r="1" fill-opacity="0" stroke-width="1" stroke="red" />
<circle cx="-47" cy="-203" r="1" fill-opacity="0" stroke-width="1" stroke="red" />
<circle cx="-54" cy="0" r="1" fill-opacity="0" stroke-width="1" stroke="red" />
<circle cx="-54" cy="-7" r="1" fill-opacity="0" stroke-width="1" stroke="red" />
<circle cx="-54" cy="-14" r="1" fill-opacity="0" stroke-width="1" stroke="red" />
<circle cx="-54" cy="-21" r="1" fill-opacity="0" stroke-width="1" stroke="red" />
<circle cx="-54" cy="-28" r="1" fill-opacity="0" stroke-width="1" stroke="red" />
<circle cx="-54" cy="-35" r="1" fill-opacity="0" stroke-width="1" stroke="red" />
<circle cx="-54" cy="-42" r="1" fill-opacity="0" stroke-width="1" stroke="red" />
<circle cx="-54" cy="-49" r="1" fill-opacity="0" stroke-width="1" stroke="red" />
<circle cx="-54" cy="-56" r="1" fill-opacity="0" stroke-width="1" stroke="red" />
<circle cx="-54" cy="-63" r="1" fill-opacity="0" stroke-width="1" stroke="red" />
<circle cx="-54" cy="-70" r="1" fill-opacity="0" stroke-width="1" stroke="red" />
<circle cx="-54" cy="-77" r="1" fill-opacity="0" stroke-width="1" stroke="red" />
<circle cx="-54" cy="-84" r="1" fill-opacity="0" stroke-width="1" stroke="red" />
<circle cx="-54" cy="-91" r="1" fill-opacity="0" stroke-width="1" stroke="red" />
<circle cx="-54" cy="-98" r="1" fill-opacity="0" stroke-width="1" stroke="red" />
<circle cx="-54" cy="-105" r="1" fill-opacity="0" stroke-width="1" stroke="red" />
<circle cx="-54" cy="-112" r="1" fill-opacity="0" stroke-width="1" stroke="red" />
<circle cx="-54" cy="-119" r="1" fill-opacity="0" stroke-width="1" stroke="red" />
<circle cx="-54" cy="-126" r="1" fill-opacity="0" stroke-width="1" stroke="red" />
<circle cx="-54" cy="-133" r="1" fill-opacity="0" stroke-width="1" stroke="red" />
<circle cx="-54" cy="-140" r="1" fill-opacity="0" stroke-width="1" stroke="red" />
<circle cx="-54" cy="-147" r="1" fill-opacity="0" stroke-width="1" stroke="red" />
<circle cx="-54" cy="-154" r="1" fill-opacity="0" stroke-width="1" stroke="red" />
<circle cx="-54" cy="-161" r="1" fill-opacity="0" stroke-width="1" stroke="red" />
<circle cx="-54" cy="-168" r="1" fill-opacity="0" stroke-width="1" stroke="red" />
<circle cx="-54" cy="-175" r="1" fill-opacity="0" stroke-width="1" stroke="red" />
<circle cx="-54" cy="-182" r="1" fill-opacity="0" stroke-width="1" stroke="red" />
<circle cx="-54" cy="-189" r="1" fill-opacity="0" stroke-width="1" stroke="red" />
<circle cx="-54" cy="-196" r="1" fill-opacity="0" stroke-width="1" stroke="red" />
<circle cx="-54" cy="-203" r="1" fill-opacity="0" stroke-width="1" stroke="red" />
<circle cx="-61" cy="0" r="1" fill-opacity="0" stroke-width="1" stroke="red" />
<circle cx="-61" cy="-7" r="1" fill-opacity="0" stroke-width="1" stroke="red" />
<circle cx="-61" cy="-14" r="1" fill-opacity="0" stroke-width="1" stroke="red" />
<circle cx="-61" cy="-21" r="1" fill-opacity="0" stroke-width="1" stroke="red" />
<circle cx="-61" cy="-28" r="1" fill-opacity="0" stroke-width="1" stroke="red" />
<circle cx="-61" cy="-35" r="1" fill-opacity="0" stroke-width="1" stroke="red" />
<circle cx="-61" cy="-42" r="1" fill-opacity="0" stroke-width="1" stroke="red" />
<circle cx="-61" cy="-49" r="1" fill-opacity="0" stroke-width="1" stroke="red" />
<circle cx="-61" cy="-56" r="1" fill-opacity="0" stroke-width="1" stroke="red" />
<circle cx="-61" cy="-63" r="1" fill-opacity="0" stroke-width="1" stroke="red" />
<circle cx="-61" cy="-70" r="1" fill-opacity="0" stroke-width="1" stroke="red" />
<circle cx="-61" cy="-77" r="1" fill-opacity="0" stroke-width="1" stroke="red" />
<circle cx="-61" cy="-84" r="1" fill-opacity="0" stroke-width="1" stroke="red" />
<circle cx="-61" cy="-91" r="1" fill-opacity="0" stroke-width="1" stroke="red" />
<circle cx="-61" cy="-98" r="1" fill-opacity="0" stroke-width="1" stroke="red" />
<circle cx="-61" cy="-105" r="1" fill-opacity="0" stroke-width="1" stroke="red" />
<circle cx="-61" cy="-112" r="1" fill-opacity="0" stroke-width="1" stroke="red" />
<circle cx="-61" cy="-119" r="1" fill-opacity="0" stroke-width="1" stroke="red" />
<circle cx="-61" cy="-126" r="1" fill-opacity="0" stroke-width="1" stroke="red" />
<circle cx="-61" cy="-133" r="1" fill-opacity="0" stroke-width="1" stroke="red" />
<circle cx="-61" cy="-140" r="1" fill-opacity="0" stroke-width="1" stroke="red" />
<circle cx="-61" cy="-147" r="1" fill-opacity="0" stroke-width="1" stroke="red" />
<circle cx="-61" cy="-154" r="1" fill-opacity="0" stroke-width="1" stroke="red" />
<circle cx="-61" cy="-161" r="1" fill-opacity="0" stroke-width="1" stroke="red" />
<circle cx="-61" cy="-168" r="1" fill-opacity="0" stroke-width="1" stroke="red" />
<circle cx="-61" cy="-175" r="1" fill-opacity="0" stroke-width="1" stroke="red" />
<circle cx="-61" cy="-182" r="1" fill-opacity="0" stroke-width="1" stroke="red" />
<circle cx="-61" cy="-189" r="1" fill-opacity="0" stroke-width="1" stroke="red" />
<circle cx="-61" cy="-196" r="1" fill-opacity="0" stroke-width="1" stroke="red" />
<circle cx="-61" cy="-203" r="1" fill-opacity="0" stroke-width="1" stroke="red" />
<circle cx="-68" cy="0" r="1" fill-opacity="0" stroke-width="1" stroke="red" />
<circle cx="-68" cy="-7" r="1" fill-opacity="0" stroke-width="1" stroke="red" />
<circle cx="-68" cy="-14" r="1" fill-opacity="0" stroke-width="1" stroke="red" />
<circle cx="-68" cy="-21" r="1" fill-opacity="0" stroke-width="1" stroke="red" />
<circle cx="-68" cy="-28" r="1" fill-opacity="0" stroke-width="1" stroke="red" />
<circle cx="-68" cy="-35" r="1" fill-opacity="0" stroke-width="1" stroke="red" />
<circle cx="-68" cy="-42" r="1" fill-opacity="0" stroke-width="1" stroke="red" />
<circle cx="-68" cy="-49" r="1" fill-opacity="0" stroke-width="1" stroke="red" />
<circle cx="-68" cy="-56" r="1" fill-opacity="0" stroke-width="1" stroke="red" />
<circle cx="-68" cy="-63" r="1" fill-opacity="0" stroke-width="1" stroke="red" />
<circle cx="-68" cy="-70" r="1" fill-opacity="0" stroke-width="1" stroke="red" />
<circle cx="-68" cy="-77" r="1" fill-opacity="0" stroke-width="1" stroke="red" />
<circle cx="-68" cy="-84" r="1" fill-opacity="0" stroke-width="1" stroke="red" />
<circle cx="-68" cy="-91" r="1" fill-opacity="0" stroke-width="1" stroke="red" />
<circle cx="-68" cy="-98" r="1" fill-opacity="0" stroke-width="1" stroke="red" />
<circle cx="-68" cy="-105" r="1" fill-opacity="0" stroke-width="1" stroke="red" />
<circle cx="-68" cy="-112" r="1" fill-opacity="0" stroke-width="1" stroke="red" />
<circle cx="-68" cy="-119" r="1" fill-opacity="0" stroke-width="1" stroke="red" />
<circle cx="-68" cy="-126" r="1" fill-opacity="0" stroke-width="1" stroke="red" />
<circle cx="-68" cy="-133" r="1" fill-opacity="0" stroke-width="1" stroke="red" />
<circle cx="-68" cy="-140" r="1" fill-opacity="0" stroke-width="1" stroke="red" />
<circle cx="-68" cy="-147" r="1" fill-opacity="0" stroke-width="1" stroke="red" />
<circle cx="-68" cy="-154" r="1" fill-opacity="0" stroke-width="1" stroke="red" />
<circle cx="-68" cy="-161" r="1" fill-opacity="0" stroke-width="1" stroke="red" />
<circle cx="-68" cy="-168" r="1" fill-opacity="0" stroke-width="1" stroke="red" />
<circle cx="-68" cy="-175" r="1" fill-opacity="0" stroke-width="1" stroke="red" />
<circle cx="-68" cy="-182" r="1" fill-opacity="0" stroke-width="1" stroke="red" />
<circle cx="-68" cy="-189" r="1" fill-opacity="0" stroke-width="1" stroke="red" />
<circle cx="-68" cy="-196" r="1" fill-opacity="0" stroke-width="1" stroke="red" />
<circle cx="-68" cy="-203" r="1" fill-opacity="0" stroke-width="1" stroke="red" />
</svg>